ground reactions
version=1
nRows=55
nColumns=19
inDegrees=no
endheader
time	ground_force_l_vx	ground_force_l_vy	ground_force_l_vz	ground_force_l_px	ground_force_l_py	ground_force_l_pz	ground_torque_l_x	ground_torque_l_y	ground_torque_l_z	ground_force_r_vx	ground_force_r_vy	ground_force_r_vz	ground_force_r_px	ground_force_r_py	ground_force_r_pz	ground_torque_r_x	ground_torque_r_y	ground_torque_r_z
4.208333	0.000000	0.000000	-0.000000	-0.000000	-0.000000	0.000000	0.000000	-0.000000	0.000000	7.703044	556.789227	-25.979903	0.885755	0.000000	-0.407945	0.000000	1.486094	0.000000
4.209375	0.000000	0.000000	-0.000000	-0.000000	-0.000000	0.000000	0.000000	-0.000000	0.000000	8.193275	558.101691	-25.962075	0.884554	0.000000	-0.407928	0.000000	1.516073	0.000000
4.210417	0.000000	0.000000	-0.000000	0.000000	0.000000	-0.000000	0.000000	-0.000000	0.000000	8.687479	559.416544	-25.947723	0.883356	0.000000	-0.407909	0.000000	1.545546	0.000000
4.211458	0.000000	0.000000	-0.000000	0.000000	0.000000	-0.000000	0.000000	-0.000000	0.000000	9.185636	560.733680	-25.937117	0.882162	0.000000	-0.407890	0.000000	1.574480	0.000000
4.212500	0.000000	0.000000	-0.000000	0.000000	0.000000	-0.000000	0.000000	-0.000000	0.000000	9.687748	562.053034	-25.930555	0.880972	0.000000	-0.407869	0.000000	1.602852	0.000000
4.213542	0.000000	0.000000	-0.000000	0.000000	0.000000	-0.000000	0.000000	-0.000000	0.000000	10.193848	563.374580	-25.928363	0.879785	0.000000	-0.407847	0.000000	1.630644	0.000000
4.214583	0.000000	0.000000	-0.000000	0.000000	0.000000	-0.000000	0.000000	-0.000000	0.000000	10.703992	564.698330	-25.930890	0.878600	0.000000	-0.407825	0.000000	1.657844	0.000000
4.215625	0.000000	0.000000	-0.000000	0.000000	0.000000	-0.000000	0.000000	-0.000000	0.000000	11.218271	566.024332	-25.938499	0.877418	0.000000	-0.407802	0.000000	1.684449	0.000000
4.216667	0.000000	0.000000	-0.000000	0.000000	0.000000	-0.000000	0.000000	-0.000000	0.000000	11.736801	567.352667	-25.951563	0.876238	0.000000	-0.407778	0.000000	1.710461	0.000000
4.217708	0.000000	0.000000	-0.000000	0.000000	0.000000	-0.000000	0.000000	-0.000000	0.000000	12.259729	568.683447	-25.970462	0.875058	0.000000	-0.407755	0.000000	1.735891	0.000000
4.218750	0.000000	0.000000	-0.000000	0.000000	0.000000	-0.000000	0.000000	-0.000000	0.000000	12.787230	570.016809	-25.995570	0.873879	0.000000	-0.407731	0.000000	1.760753	0.000000
4.219792	0.000000	0.000000	-0.000000	0.000000	0.000000	-0.000000	0.000000	-0.000000	0.000000	13.319505	571.352920	-26.027252	0.872699	0.000000	-0.407707	0.000000	1.785071	0.000000
4.220833	0.000000	0.000000	-0.000000	0.000000	0.000000	-0.000000	0.000000	-0.000000	0.000000	13.856779	572.691963	-26.065855	0.871518	0.000000	-0.407684	0.000000	1.808871	0.000000
4.221875	0.000000	0.000000	-0.000000	-0.000000	-0.000000	0.000000	0.000000	-0.000000	0.000000	14.399296	574.034142	-26.111701	0.870335	0.000000	-0.407661	0.000000	1.832188	0.000000
4.222917	0.000000	0.000000	-0.000000	-0.000000	-0.000000	0.000000	0.000000	-0.000000	0.000000	14.947320	575.379677	-26.165082	0.869151	0.000000	-0.407638	0.000000	1.855058	0.000000
4.223958	0.000000	0.000000	-0.000000	-0.000000	-0.000000	0.000000	0.000000	-0.000000	0.000000	15.501129	576.728796	-26.226252	0.867963	0.000000	-0.407617	0.000000	1.877524	0.000000
4.225000	0.000000	0.000000	-0.000000	-0.000000	-0.000000	0.000000	0.000000	-0.000000	0.000000	16.061011	578.081734	-26.295424	0.866773	0.000000	-0.407595	0.000000	1.899630	0.000000
4.226042	0.000000	0.000000	-0.000000	-0.000000	-0.000000	0.000000	0.000000	-0.000000	0.000000	16.627258	579.438730	-26.372764	0.865580	0.000000	-0.407575	0.000000	1.921424	0.000000
4.227083	0.000000	0.000001	-0.000000	-0.000000	-0.000000	0.000000	0.000000	-0.000000	0.000000	17.200167	580.800021	-26.458385	0.864384	0.000000	-0.407555	0.000000	1.942956	0.000000
4.228125	0.000000	0.000001	-0.000000	-0.000000	-0.000000	0.000000	0.000000	-0.000000	0.000000	17.780030	582.165837	-26.552351	0.863185	0.000000	-0.407536	0.000000	1.964277	0.000000
4.229167	0.000000	0.000001	-0.000000	-0.000000	-0.000000	0.000000	0.000000	-0.000000	0.000000	18.367134	583.536399	-26.654672	0.861983	0.000000	-0.407518	0.000000	1.985436	0.000000
4.230208	0.000000	0.000001	-0.000000	-0.000000	-0.000000	0.000000	0.000000	-0.000000	0.000000	18.961754	584.911912	-26.765301	0.860780	0.000000	-0.407501	0.000000	2.006486	0.000000
4.231250	0.000000	0.000001	-0.000000	-0.000000	-0.000000	0.000000	0.000000	-0.000000	0.000000	19.564151	586.292565	-26.884142	0.859575	0.000000	-0.407484	0.000000	2.027474	0.000000
4.232292	0.000000	0.000002	-0.000000	0.000000	0.000000	-0.000000	0.000000	-0.000000	0.000000	20.174568	587.678521	-27.011044	0.858369	0.000000	-0.407468	0.000000	2.048448	0.000000
4.233333	0.000000	0.000002	-0.000000	0.000000	0.000000	-0.000000	0.000000	-0.000000	0.000000	20.793226	589.069921	-27.145810	0.857163	0.000000	-0.407453	0.000000	2.069453	0.000000
4.234375	0.000000	0.000002	-0.000000	0.000000	0.000000	-0.000000	0.000000	-0.000000	0.000000	21.420320	590.466873	-27.288201	0.855958	0.000000	-0.407439	0.000000	2.090529	0.000000
4.235417	0.000000	0.000003	-0.000000	0.000000	0.000000	-0.000000	0.000000	-0.000000	0.000000	22.056020	591.869454	-27.437933	0.854754	0.000000	-0.407424	0.000000	2.111713	0.000000
4.236458	0.000000	0.000003	-0.000000	0.000000	0.000000	-0.000000	0.000000	-0.000000	0.000000	22.700463	593.277707	-27.594691	0.853552	0.000000	-0.407411	0.000000	2.133038	0.000000
4.237500	0.000001	0.000004	-0.000000	0.000001	0.000000	-0.000000	0.000000	-0.000000	0.000000	23.353755	594.691635	-27.758131	0.852354	0.000000	-0.407398	0.000000	2.154531	0.000000
4.238542	0.000001	0.000004	-0.000000	0.000001	0.000000	-0.000000	0.000000	-0.000000	0.000000	24.015968	596.111207	-27.927885	0.851159	0.000000	-0.407385	0.000000	2.176212	0.000000
4.239583	0.000001	0.000005	-0.000000	0.000001	0.000000	-0.000000	0.000000	-0.000000	0.000000	24.687138	597.536349	-28.103567	0.849969	0.000000	-0.407373	0.000000	2.198098	0.000000
4.240625	0.000001	0.000006	-0.000000	0.000000	0.000000	-0.000000	0.000000	-0.000000	0.000000	25.367264	598.966949	-28.284779	0.848784	0.000000	-0.407361	0.000000	2.220196	0.000000
4.241667	0.000001	0.000007	-0.000000	0.000000	0.000000	-0.000000	0.000000	-0.000000	0.000000	26.056304	600.402856	-28.471118	0.847605	0.000000	-0.407349	0.000000	2.242509	0.000000
4.242708	0.000001	0.000009	-0.000000	-0.000000	-0.000000	0.000000	0.000000	-0.000000	0.000000	26.754182	601.843878	-28.662179	0.846433	0.000000	-0.407338	0.000000	2.265032	0.000000
4.243750	0.000001	0.000011	-0.000001	-0.000000	-0.000000	0.000000	0.000000	-0.000000	0.000000	27.460779	603.289789	-28.857559	0.845268	0.000000	-0.407326	0.000000	2.287753	0.000000
4.244792	0.000002	0.000013	-0.000001	-0.000001	-0.000000	0.000000	0.000000	-0.000000	0.000000	28.175938	604.740325	-29.056862	0.844110	0.000000	-0.407316	0.000000	2.310653	0.000000
4.245833	0.000002	0.000016	-0.000001	-0.000001	-0.000000	0.000001	0.000000	-0.000000	0.000000	28.899462	606.195191	-29.259702	0.842960	0.000000	-0.407305	0.000000	2.333707	0.000000
4.246875	0.000003	0.000019	-0.000001	-0.000002	-0.000000	0.000001	0.000000	-0.000000	0.000000	29.631116	607.654062	-29.465702	0.841818	0.000000	-0.407295	0.000000	2.356881	0.000000
4.247917	0.000003	0.000023	-0.000001	-0.000002	-0.000000	0.000001	0.000000	-0.000000	0.000000	30.370626	609.116585	-29.674499	0.840685	0.000000	-0.407286	0.000000	2.380135	0.000000
4.248958	0.000004	0.000028	-0.000001	-0.000002	-0.000000	0.000001	0.000000	-0.000000	0.000000	31.117682	610.582386	-29.885741	0.839559	0.000000	-0.407277	0.000000	2.403424	0.000000
4.250000	0.000005	0.000034	-0.000001	-0.000002	-0.000000	0.000001	0.000000	-0.000000	0.000000	31.871937	612.051072	-30.099087	0.838441	0.000000	-0.407268	0.000000	2.426696	0.000000
4.251042	0.000006	0.000041	-0.000002	-0.000002	-0.000000	0.000001	0.000000	-0.000000	0.000000	32.633012	613.522234	-30.314205	0.837330	0.000000	-0.407261	0.000000	2.449891	0.000000
4.252083	0.000007	0.000049	-0.000002	-0.000001	-0.000000	0.000001	0.000000	-0.000001	0.000000	33.400497	614.995454	-30.530771	0.836227	0.000000	-0.407254	0.000000	2.472947	0.000000
4.253125	0.000008	0.000059	-0.000003	-0.000000	-0.000000	0.000000	0.000000	-0.000001	0.000000	34.173953	616.470307	-30.748463	0.835130	0.000000	-0.407248	0.000000	2.495795	0.000000
4.254167	0.000010	0.000071	-0.000003	0.000001	0.000000	-0.000001	0.000000	-0.000001	0.000000	34.952914	617.946366	-30.966959	0.834039	0.000000	-0.407243	0.000000	2.518362	0.000000
4.255208	0.000012	0.000084	-0.000004	0.000002	0.000000	-0.000001	0.000000	-0.000001	0.000000	35.736895	619.423209	-31.185935	0.832954	0.000000	-0.407239	0.000000	2.540572	0.000000
4.256250	0.000014	0.000100	-0.000004	0.000004	0.000000	-0.000002	0.000000	-0.000001	0.000000	36.525392	620.900418	-31.405056	0.831873	0.000000	-0.407237	0.000000	2.562345	0.000000
4.257292	0.000017	0.000120	-0.000005	0.000005	0.000000	-0.000003	0.000000	-0.000001	0.000000	37.317887	622.377586	-31.623975	0.830797	0.000000	-0.407236	0.000000	2.583598	0.000000
4.258333	0.000020	0.000143	-0.000006	0.000006	0.000000	-0.000003	0.000000	-0.000002	0.000000	38.113852	623.854322	-31.842331	0.829723	0.000000	-0.407237	0.000000	2.604248	0.000000
4.259375	0.000024	0.000170	-0.000008	0.000007	0.000000	-0.000004	0.000000	-0.000002	0.000000	38.912757	625.330250	-32.059741	0.828652	0.000000	-0.407239	0.000000	2.624208	0.000000
4.260417	0.000029	0.000203	-0.000009	0.000007	0.000000	-0.000004	0.000000	-0.000002	0.000000	39.714070	626.805015	-32.275800	0.827583	0.000000	-0.407243	0.000000	2.643393	0.000000
4.261458	0.000034	0.000243	-0.000011	0.000006	0.000000	-0.000003	0.000000	-0.000003	0.000000	40.517267	628.278285	-32.490075	0.826514	0.000000	-0.407249	0.000000	2.661717	0.000000
4.262500	0.000041	0.000290	-0.000013	0.000005	0.000000	-0.000002	0.000000	-0.000003	0.000000	41.321831	629.749749	-32.702112	0.825445	0.000000	-0.407257	0.000000	2.679096	0.000000
4.263542	0.000049	0.000348	-0.000015	0.000002	0.000000	-0.000001	0.000000	-0.000004	0.000000	42.127264	631.219124	-32.911425	0.824375	0.000000	-0.407267	0.000000	2.695445	0.000000
4.264583	0.000058	0.000417	-0.000018	-0.000002	-0.000000	0.000001	0.000000	-0.000005	0.000000	42.933087	632.686152	-33.117504	0.823303	0.000000	-0.407279	0.000000	2.710685	0.000000
